<svg clip-rule="evenodd" fill-rule="evenodd" stroke-linejoin="round" stroke-miterlimit="2" viewBox="0 0 96 96" xmlns="http://www.w3.org/2000/svg"><path d="m70.9 23.4c-5.2 0-9.9 1.6-13.9 4.3h-36.2c-11.2 0-20.3 9.1-20.3 20.3s9.1 20.3 20.3 20.3h36.2c4 2.7 8.7 4.3 13.9 4.3 13.6 0 24.6-11 24.6-24.6s-11-24.6-24.6-24.6zm-32.1 20-12.3 12.3c-.4.4-1 .6-1.6.6s-1.1-.2-1.6-.6l-6-6c-.9-.9-.9-2.2 0-3.1s2.2-.9 3.1 0l4.6 4.4 10.7-10.7c.9-.9 2.2-.9 3.1 0s.9 2.3 0 3.1zm32.1 24.8c-11.2 0-20.2-9.1-20.2-20.2s9.1-20.2 20.2-20.2 20.2 9 20.2 20.2-9.1 20.2-20.2 20.2z" fill="#fff" fill-rule="nonzero"/></svg>