<svg clip-rule="evenodd" fill-rule="evenodd" stroke-linejoin="round" stroke-miterlimit="2" viewBox="0 0 96 96" xmlns="http://www.w3.org/2000/svg"><path d="m48 .5c-26.2 0-47.5 21.3-47.5 47.5s21.3 47.5 47.5 47.5 47.5-21.3 47.5-47.5-21.3-47.5-47.5-47.5zm20.8 59.5c2.4 2.4 2.4 6.3 0 8.8-1.2 1.2-2.8 1.8-4.4 1.8s-3.2-.6-4.4-1.8l-12-12-12 12c-1.2 1.2-2.8 1.8-4.4 1.8s-3.2-.6-4.4-1.8c-2.4-2.4-2.4-6.3 0-8.8l12-12-12-12c-2.4-2.4-2.4-6.3 0-8.8 2.4-2.4 6.3-2.4 8.8 0l12 12 12-12c2.4-2.4 6.3-2.4 8.8 0 2.4 2.4 2.4 6.3 0 8.8l-12 12z" fill="#fff" fill-rule="nonzero"/></svg>