<?xml version="1.0" encoding="UTF-8" standalone="no"?><!DOCTYPE svg PUBLIC "-//W3C//DTD SVG 1.1//EN" "http://www.w3.org/Graphics/SVG/1.1/DTD/svg11.dtd"><svg width="100%" height="100%" viewBox="0 0 96 96" version="1.1" xmlns="http://www.w3.org/2000/svg" xmlns:xlink="http://www.w3.org/1999/xlink" xml:space="preserve" xmlns:serif="http://www.serif.com/" style="fill-rule:evenodd;clip-rule:evenodd;stroke-linejoin:round;stroke-miterlimit:2;"><g><g><g><path d="M11.3,25.05l-7.6,0c-1.7,0 -3.2,1.4 -3.2,3.2c0,1.7 1.4,3.2 3.2,3.2l7.6,0c1.7,0 3.2,-1.4 3.2,-3.2c-0.1,-1.8 -1.5,-3.2 -3.2,-3.2Z" style="fill:#fff;fill-rule:nonzero;"/><path d="M11.3,38.25l-7.6,0c-1.7,0 -3.2,1.4 -3.2,3.2c0,1.8 1.4,3.2 3.2,3.2l7.6,0c1.7,0 3.2,-1.4 3.2,-3.2c0,-1.8 -1.5,-3.2 -3.2,-3.2Z" style="fill:#fff;fill-rule:nonzero;"/><path d="M11.3,51.35l-7.6,0c-1.7,0 -3.2,1.4 -3.2,3.2c0,1.8 1.4,3.2 3.2,3.2l7.6,0c1.7,0 3.2,-1.4 3.2,-3.2c0,-1.8 -1.5,-3.2 -3.2,-3.2Z" style="fill:#fff;fill-rule:nonzero;"/><path d="M11.3,64.55l-7.6,0c-1.7,0 -3.2,1.4 -3.2,3.2c0,1.8 1.4,3.2 3.2,3.2l7.6,0c1.7,0 3.2,-1.4 3.2,-3.2c0,-1.8 -1.5,-3.2 -3.2,-3.2Z" style="fill:#fff;fill-rule:nonzero;"/><path d="M84.7,31.35l7.6,0c1.7,0 3.2,-1.4 3.2,-3.2c0,-1.7 -1.4,-3.2 -3.2,-3.2l-7.6,0c-1.7,0 -3.2,1.4 -3.2,3.2c0.1,1.8 1.5,3.2 3.2,3.2Z" style="fill:#fff;fill-rule:nonzero;"/><path d="M92.3,38.25l-7.6,0c-1.7,0 -3.2,1.4 -3.2,3.2c0,1.8 1.4,3.2 3.2,3.2l7.6,0c1.7,0 3.2,-1.4 3.2,-3.2c0,-1.8 -1.4,-3.2 -3.2,-3.2Z" style="fill:#fff;fill-rule:nonzero;"/><path d="M92.3,51.35l-7.6,0c-1.7,0 -3.2,1.4 -3.2,3.2c0,1.8 1.4,3.2 3.2,3.2l7.6,0c1.7,0 3.2,-1.4 3.2,-3.2c0,-1.8 -1.4,-3.2 -3.2,-3.2Z" style="fill:#fff;fill-rule:nonzero;"/><path d="M92.3,64.55l-7.6,0c-1.7,0 -3.2,1.4 -3.2,3.2c0,1.8 1.4,3.2 3.2,3.2l7.6,0c1.7,0 3.2,-1.4 3.2,-3.2c0,-1.8 -1.4,-3.2 -3.2,-3.2Z" style="fill:#fff;fill-rule:nonzero;"/><path d="M67.7,14.35c1.7,0 3.2,-1.4 3.2,-3.2l0,-7.5c0,-1.7 -1.4,-3.2 -3.2,-3.2c-1.8,0 -3.2,1.4 -3.2,3.2l0,7.6c0.1,1.7 1.5,3.1 3.2,3.1Z" style="fill:#fff;fill-rule:nonzero;"/><path d="M54.6,14.35c1.7,0 3.2,-1.4 3.2,-3.2l0,-7.5c0,-1.7 -1.4,-3.2 -3.2,-3.2c-1.8,0 -3.2,1.4 -3.2,3.2l0,7.6c0,1.7 1.4,3.1 3.2,3.1Z" style="fill:#fff;fill-rule:nonzero;"/><path d="M41.4,14.35c1.7,0 3.2,-1.4 3.2,-3.2l0,-7.5c0,-1.7 -1.4,-3.2 -3.2,-3.2c-1.8,0 -3.2,1.4 -3.2,3.2l0,7.6c0.1,1.7 1.5,3.1 3.2,3.1Z" style="fill:#fff;fill-rule:nonzero;"/><path d="M28.3,14.35c1.7,0 3.2,-1.4 3.2,-3.2l0,-7.5c0,-1.7 -1.4,-3.2 -3.2,-3.2c-1.7,0 -3.2,1.4 -3.2,3.2l0,7.6c0,1.7 1.4,3.1 3.2,3.1Z" style="fill:#fff;fill-rule:nonzero;"/><path d="M67.7,81.55c-1.7,0 -3.2,1.4 -3.2,3.2l0,7.6c0,1.7 1.4,3.2 3.2,3.2c1.8,0 3.2,-1.4 3.2,-3.2l0,-7.6c0,-1.8 -1.4,-3.2 -3.2,-3.2Z" style="fill:#fff;fill-rule:nonzero;"/><path d="M54.6,81.55c-1.7,0 -3.2,1.4 -3.2,3.2l0,7.6c0,1.7 1.4,3.2 3.2,3.2c1.8,0 3.2,-1.4 3.2,-3.2l0,-7.6c-0.1,-1.8 -1.5,-3.2 -3.2,-3.2Z" style="fill:#fff;fill-rule:nonzero;"/><path d="M41.4,81.55c-1.7,0 -3.2,1.4 -3.2,3.2l0,7.6c0,1.7 1.4,3.2 3.2,3.2c1.8,0 3.2,-1.4 3.2,-3.2l0,-7.6c0,-1.8 -1.4,-3.2 -3.2,-3.2Z" style="fill:#fff;fill-rule:nonzero;"/><path d="M28.3,81.55c-1.7,0 -3.2,1.4 -3.2,3.2l0,7.6c0,1.7 1.4,3.2 3.2,3.2c1.7,0 3.2,-1.4 3.2,-3.2l0,-7.6c-0.1,-1.8 -1.5,-3.2 -3.2,-3.2Z" style="fill:#fff;fill-rule:nonzero;"/><path d="M73.7,19.15l-51.4,0c-1.7,0 -3.2,1.4 -3.2,3.2l-0,51.3c-0,1.7 1.4,3.2 3.2,3.2l51.3,-0c1.7,-0 3.2,-1.4 3.2,-3.2l-0,-51.4c-0,-1.7 -1.4,-3.1 -3.1,-3.1Z" style="fill:#fff;fill-rule:nonzero;"/></g></g></g></svg>