<svg clip-rule="evenodd" fill-rule="evenodd" stroke-linejoin="round" stroke-miterlimit="2" viewBox="0 0 96 96" xmlns="http://www.w3.org/2000/svg"><g fill="#fff" fill-rule="nonzero"><path d="m11.3 25.05h-7.6c-1.7 0-3.2 1.4-3.2 3.2 0 1.7 1.4 3.2 3.2 3.2h7.6c1.7 0 3.2-1.4 3.2-3.2-.1-1.8-1.5-3.2-3.2-3.2z"/><path d="m11.3 38.25h-7.6c-1.7 0-3.2 1.4-3.2 3.2s1.4 3.2 3.2 3.2h7.6c1.7 0 3.2-1.4 3.2-3.2s-1.5-3.2-3.2-3.2z"/><path d="m11.3 51.35h-7.6c-1.7 0-3.2 1.4-3.2 3.2s1.4 3.2 3.2 3.2h7.6c1.7 0 3.2-1.4 3.2-3.2s-1.5-3.2-3.2-3.2z"/><path d="m11.3 64.55h-7.6c-1.7 0-3.2 1.4-3.2 3.2s1.4 3.2 3.2 3.2h7.6c1.7 0 3.2-1.4 3.2-3.2s-1.5-3.2-3.2-3.2z"/><path d="m84.7 31.35h7.6c1.7 0 3.2-1.4 3.2-3.2 0-1.7-1.4-3.2-3.2-3.2h-7.6c-1.7 0-3.2 1.4-3.2 3.2.1 1.8 1.5 3.2 3.2 3.2z"/><path d="m92.3 38.25h-7.6c-1.7 0-3.2 1.4-3.2 3.2s1.4 3.2 3.2 3.2h7.6c1.7 0 3.2-1.4 3.2-3.2s-1.4-3.2-3.2-3.2z"/><path d="m92.3 51.35h-7.6c-1.7 0-3.2 1.4-3.2 3.2s1.4 3.2 3.2 3.2h7.6c1.7 0 3.2-1.4 3.2-3.2s-1.4-3.2-3.2-3.2z"/><path d="m92.3 64.55h-7.6c-1.7 0-3.2 1.4-3.2 3.2s1.4 3.2 3.2 3.2h7.6c1.7 0 3.2-1.4 3.2-3.2s-1.4-3.2-3.2-3.2z"/><path d="m67.7 14.35c1.7 0 3.2-1.4 3.2-3.2v-7.5c0-1.7-1.4-3.2-3.2-3.2s-3.2 1.4-3.2 3.2v7.6c.1 1.7 1.5 3.1 3.2 3.1z"/><path d="m54.6 14.35c1.7 0 3.2-1.4 3.2-3.2v-7.5c0-1.7-1.4-3.2-3.2-3.2s-3.2 1.4-3.2 3.2v7.6c0 1.7 1.4 3.1 3.2 3.1z"/><path d="m41.4 14.35c1.7 0 3.2-1.4 3.2-3.2v-7.5c0-1.7-1.4-3.2-3.2-3.2s-3.2 1.4-3.2 3.2v7.6c.1 1.7 1.5 3.1 3.2 3.1z"/><path d="m28.3 14.35c1.7 0 3.2-1.4 3.2-3.2v-7.5c0-1.7-1.4-3.2-3.2-3.2-1.7 0-3.2 1.4-3.2 3.2v7.6c0 1.7 1.4 3.1 3.2 3.1z"/><path d="m67.7 81.55c-1.7 0-3.2 1.4-3.2 3.2v7.6c0 1.7 1.4 3.2 3.2 3.2s3.2-1.4 3.2-3.2v-7.6c0-1.8-1.4-3.2-3.2-3.2z"/><path d="m54.6 81.55c-1.7 0-3.2 1.4-3.2 3.2v7.6c0 1.7 1.4 3.2 3.2 3.2s3.2-1.4 3.2-3.2v-7.6c-.1-1.8-1.5-3.2-3.2-3.2z"/><path d="m41.4 81.55c-1.7 0-3.2 1.4-3.2 3.2v7.6c0 1.7 1.4 3.2 3.2 3.2s3.2-1.4 3.2-3.2v-7.6c0-1.8-1.4-3.2-3.2-3.2z"/><path d="m28.3 81.55c-1.7 0-3.2 1.4-3.2 3.2v7.6c0 1.7 1.4 3.2 3.2 3.2 1.7 0 3.2-1.4 3.2-3.2v-7.6c-.1-1.8-1.5-3.2-3.2-3.2z"/><path d="m73.7 19.15h-51.4c-1.7 0-3.2 1.4-3.2 3.2v51.3c0 1.7 1.4 3.2 3.2 3.2h51.3c1.7 0 3.2-1.4 3.2-3.2v-51.4c0-1.7-1.4-3.1-3.1-3.1z"/></g></svg>