<svg width="100%" height="100%" viewBox="0 0 96 96" version="1.1" xmlns="http://www.w3.org/2000/svg" xmlns:xlink="http://www.w3.org/1999/xlink" xml:space="preserve" xmlns:serif="http://www.serif.com/" style="fill-rule:evenodd;clip-rule:evenodd;stroke-linejoin:round;stroke-miterlimit:2;">
    <g transform="matrix(3.93468,0,0,4.02327,0.783826,-0.279287)">
        <path d="M12,1.25C16.001,1.25 19.25,4.499 19.25,8.5C19.25,12.501 16.001,15.75 12,15.75C7.999,15.75 4.75,12.501 4.75,8.5C4.75,4.499 7.999,1.25 12,1.25ZM12,2.75C8.826,2.75 6.25,5.326 6.25,8.5C6.25,11.674 8.826,14.25 12,14.25C15.174,14.25 17.75,11.674 17.75,8.5C17.75,5.326 15.174,2.75 12,2.75Z" style="fill:rgb(255,0,0);"/>
        <path d="M8.5,8.25C12.501,8.25 15.75,11.499 15.75,15.5C15.75,19.501 12.501,22.75 8.5,22.75C4.499,22.75 1.25,19.501 1.25,15.5C1.25,11.499 4.499,8.25 8.5,8.25ZM8.5,9.75C5.326,9.75 2.75,12.326 2.75,15.5C2.75,18.674 5.326,21.25 8.5,21.25C11.674,21.25 14.25,18.674 14.25,15.5C14.25,12.326 11.674,9.75 8.5,9.75Z" style="fill:rgb(0,128,0);"/>
        <path d="M15.5,8.25C19.501,8.25 22.75,11.499 22.75,15.5C22.75,19.501 19.501,22.75 15.5,22.75C11.499,22.75 8.25,19.501 8.25,15.5C8.25,11.499 11.499,8.25 15.5,8.25ZM15.5,9.75C12.326,9.75 9.75,12.326 9.75,15.5C9.75,18.674 12.326,21.25 15.5,21.25C18.674,21.25 21.25,18.674 21.25,15.5C21.25,12.326 18.674,9.75 15.5,9.75Z" style="fill:rgb(0,0,255);"/>
    </g>
</svg>
