<?xml version="1.0" encoding="UTF-8" standalone="no"?><!DOCTYPE svg PUBLIC "-//W3C//DTD SVG 1.1//EN" "http://www.w3.org/Graphics/SVG/1.1/DTD/svg11.dtd"><svg width="100%" height="100%" viewBox="0 0 96 96" version="1.1" xmlns="http://www.w3.org/2000/svg" xmlns:xlink="http://www.w3.org/1999/xlink" xml:space="preserve" xmlns:serif="http://www.serif.com/" style="fill-rule:evenodd;clip-rule:evenodd;stroke-linejoin:round;stroke-miterlimit:2;"><g><g><g><path d="M21.2,54.562l9.8,0c1,0 1.9,-0.8 1.9,-1.9c0,-1.1 -0.8,-1.9 -1.9,-1.9l-9.8,0c-1,0 -1.9,0.8 -1.9,1.9c0,1.1 0.8,1.9 1.9,1.9Z" style="fill:#fff;fill-rule:nonzero;"/><path d="M91.9,41.962l-5.4,0l0,-1.5c0,-3.1 -2.5,-5.7 -5.7,-5.7l-0.5,0c0.4,-3 1.9,-5.9 4.1,-8l5.9,-5.7c0.4,-0.3 0.6,-0.8 0.6,-1.3c0,-0.5 -0.2,-1 -0.6,-1.3l-14,-13.9l0.9,-0.9c0.8,-0.7 0.8,-1.9 0,-2.7c-0.7,-0.7 -1.9,-0.7 -2.6,0l-4.8,4.8c-3,-1.8 -7.1,-1.5 -9.7,1.1l-2,2c-0.7,0.7 -0.7,1.9 0,2.6l8.5,8.5c0.4,0.4 0.8,0.5 1.3,0.5c0.5,0 1,-0.2 1.3,-0.5l2,-2c1.5,-1.5 2.3,-3.5 2.3,-5.6c0,-1.5 -0.4,-2.9 -1.2,-4.1l1.3,-1.3l12.6,12.6l-4.5,4.3c-3,2.8 -4.8,6.7 -5.3,10.7l-0.8,0c-3.1,0 -5.7,2.5 -5.7,5.7l0,1.7l-65.8,0c-1,0 -1.9,0.8 -1.9,1.9l0,49.8c0,1 0.8,1.9 1.9,1.9c1.1,0 1.9,-0.9 1.9,-2l0,-26.5l84,0l0,26.5c0,1 0.8,1.9 1.9,1.9c1.1,0 1.9,-0.8 1.9,-1.9l0,-49.8c-0.1,-1 -0.9,-1.8 -1.9,-1.8Zm-23.3,-26.5l-0.6,0.7l-5.9,-5.9l0.7,-0.7c1.6,-1.6 4.3,-1.6 5.9,0c0.8,0.8 1.2,1.8 1.2,3c-0,1.2 -0.5,2.1 -1.3,2.9Zm5.2,25c-0,-1.1 0.9,-1.9 1.9,-1.9l5.1,0c1.1,0 1.9,0.9 1.9,1.9l-0,1.5l-9,0l-0,-1.5l0.1,0Zm-27.7,22.9l-40.1,0l-0,-17.7l40.1,0l-0,17.7Zm43.9,0l-40.1,0l-0,-17.7l40.1,0l-0,17.7Z" style="fill:#fff;fill-rule:nonzero;"/><path d="M65.1,54.562l9.8,0c1,0 1.9,-0.8 1.9,-1.9c0,-1.1 -0.8,-1.9 -1.9,-1.9l-9.8,0c-1,0 -1.9,0.8 -1.9,1.9c-0,1.1 0.8,1.9 1.9,1.9Z" style="fill:#fff;fill-rule:nonzero;"/><path d="M52.7,25.462c0.4,0.4 0.8,0.5 1.3,0.5c0.5,0 1,-0.2 1.3,-0.5l2.9,-2.9c0.7,-0.7 0.7,-1.9 0,-2.6c-0.7,-0.7 -1.9,-0.7 -2.6,0l-2.9,2.9c-0.7,0.7 -0.7,1.9 0,2.6Z" style="fill:#fff;fill-rule:nonzero;"/><path d="M49.2,17.662c0.2,0 0.3,0 0.5,-0.1l3.9,-1c1,-0.3 1.6,-1.3 1.3,-2.3c-0.3,-1 -1.3,-1.6 -2.3,-1.3l-3.9,1c-1,0.3 -1.6,1.3 -1.3,2.3c0.2,0.8 1,1.4 1.8,1.4Z" style="fill:#fff;fill-rule:nonzero;"/><path d="M62.5,30.862c0.8,0 1.6,-0.6 1.8,-1.4l1,-3.9c0.3,-1 -0.3,-2 -1.3,-2.3c-1,-0.3 -2,0.3 -2.3,1.3l-1,3.9c-0.3,1 0.3,2 1.3,2.3c0.2,0.1 0.3,0.1 0.5,0.1Z" style="fill:#fff;fill-rule:nonzero;"/></g></g></g></svg>