<?xml version="1.0" encoding="UTF-8" standalone="no"?><!DOCTYPE svg PUBLIC "-//W3C//DTD SVG 1.1//EN" "http://www.w3.org/Graphics/SVG/1.1/DTD/svg11.dtd"><svg width="100%" height="100%" viewBox="0 0 96 96" version="1.1" xmlns="http://www.w3.org/2000/svg" xmlns:xlink="http://www.w3.org/1999/xlink" xml:space="preserve" xmlns:serif="http://www.serif.com/" style="fill-rule:evenodd;clip-rule:evenodd;stroke-linejoin:round;stroke-miterlimit:2;"><g><g><g><path d="M0.5,11.65l0,72.7l95,0l0,-72.7l-95,-0Zm30.8,6.1c1.9,-0 3.4,1.5 3.4,3.4c-0,1.9 -1.5,3.4 -3.4,3.4c-1.9,-0 -3.4,-1.5 -3.4,-3.4c-0,-1.9 1.5,-3.4 3.4,-3.4Zm-10.2,-0c1.9,-0 3.4,1.5 3.4,3.4c0,1.9 -1.5,3.4 -3.4,3.4c-1.9,-0 -3.4,-1.5 -3.4,-3.4c0,-1.9 1.5,-3.4 3.4,-3.4Zm-10.2,-0c1.9,-0 3.4,1.5 3.4,3.4c0,1.9 -1.5,3.4 -3.4,3.4c-1.9,-0 -3.4,-1.6 -3.4,-3.4c0,-1.8 1.5,-3.4 3.4,-3.4Zm79.4,61.4l-84.6,0l-0,-48.5l84.6,0l-0,48.5Z" style="fill:#fff;fill-rule:nonzero;"/><path d="M46.9,69.65c0.6,0.6 1.6,0.6 2.2,0l13.8,-13.8c3.7,-3.7 3.7,-9.7 0,-13.4c-1.8,-1.8 -4.3,-2.8 -6.7,-2.8c-2.4,0 -4.9,0.9 -6.7,2.8l-1.5,1.5l-1.6,-1.6c-1.8,-1.8 -4.3,-2.8 -6.7,-2.8c-2.5,-0 -5,1 -6.9,2.9c-3.6,3.7 -3.4,9.7 0.3,13.4l13.8,13.8Z" style="fill:#fff;fill-rule:nonzero;"/></g></g></g></svg>