<?xml version="1.0" encoding="UTF-8" standalone="no"?><!DOCTYPE svg PUBLIC "-//W3C//DTD SVG 1.1//EN" "http://www.w3.org/Graphics/SVG/1.1/DTD/svg11.dtd"><svg width="100%" height="100%" viewBox="0 0 100 125" version="1.1" xmlns="http://www.w3.org/2000/svg" xmlns:xlink="http://www.w3.org/1999/xlink" xml:space="preserve" xmlns:serif="http://www.serif.com/" style="fill-rule:evenodd;clip-rule:evenodd;stroke-linejoin:round;stroke-miterlimit:2;"><g><g><g><circle cx="14.4" cy="34.5" r="2.5" style="fill:#fff;"/><circle cx="21.6" cy="34.5" r="2.5" style="fill:#fff;"/><circle cx="28.9" cy="34.5" r="2.5" style="fill:#fff;"/><path d="M93.3,23l-86.6,0c-2.3,0 -4.2,1.9 -4.2,4.2l0,70.6c0,2.3 1.9,4.2 4.2,4.2l86.6,-0c2.3,-0 4.2,-1.9 4.2,-4.2l0,-70.6c0,-2.3 -1.9,-4.2 -4.2,-4.2Zm-0.5,74.3l-85.6,0l0,-51.3l85.6,0l0,51.3Zm0,-56l-85.6,0l0,-13.6l85.6,0l0,13.6Z" style="fill:#fff;fill-rule:nonzero;"/><path d="M38.5,76.7l-1.9,8.2c-0.4,1.7 0.2,3.4 1.6,4.5c0.8,0.5 1.6,0.8 2.5,0.8c0.8,0 1.5,-0.2 2.2,-0.6l7,-4.4l7.2,4.4c1.5,0.9 3.3,0.8 4.7,-0.2c1.4,-1 2,-2.8 1.6,-4.5l-1.9,-8l6.3,-5.4c1.3,-1.1 1.8,-2.9 1.3,-4.6c-0.5,-1.6 -2,-2.8 -3.7,-2.9l-8.2,-0.6l-3.2,-7.8c-1.3,-3.2 -6.6,-3.2 -7.9,0l-3.1,7.6l-8.4,0.7c-1.7,0.1 -3.2,1.3 -3.7,2.9c-0.5,1.6 0,3.4 1.3,4.6l6.3,5.3Zm4.8,-9c1.6,-0.1 3,-1.1 3.6,-2.6l2.9,-7.7l3.2,7.7c0.6,1.5 2,2.5 3.6,2.6l8.3,0.3l-6.4,5.5c-1.2,1 -1.7,2.7 -1.4,4.2l2.2,8l-7.2,-4.4c-1.4,-0.8 -3.1,-0.8 -4.5,0l-6.9,4.6l1.9,-8.2c0.4,-1.6 -0.2,-3.2 -1.4,-4.2l-6.2,-5.1l8.3,-0.7Z" style="fill:#fff;fill-rule:nonzero;"/></g></g></g></svg>