<?xml version="1.0" encoding="UTF-8" standalone="no"?>
<!DOCTYPE svg PUBLIC "-//W3C//DTD SVG 1.1//EN" "http://www.w3.org/Graphics/SVG/1.1/DTD/svg11.dtd">
<svg width="100%" height="100%" viewBox="0 0 100 100" version="1.1" xmlns="http://www.w3.org/2000/svg" xmlns:xlink="http://www.w3.org/1999/xlink" xml:space="preserve" xmlns:serif="http://www.serif.com/" style="fill-rule:evenodd;clip-rule:evenodd;stroke-linejoin:round;stroke-miterlimit:2;">
    <g>
        <path d="M50.5,11.4C29.5,11.4 12.4,28.5 12.4,49.5C12.4,70.5 29.5,87.6 50.5,87.6C71.5,87.6 88.6,70.5 88.6,49.5C88.6,28.5 71.6,11.4 50.5,11.4ZM49.8,15.7C49.8,15.2 50.2,14.9 50.6,14.9C51.1,14.9 51.4,15.3 51.4,15.7L51.4,18.9C51.4,19.4 51,19.7 50.6,19.7C50.1,19.7 49.8,19.3 49.8,18.9L49.8,15.7ZM49.8,23.8C49.8,23.3 50.2,23 50.6,23C51.1,23 51.4,23.4 51.4,23.8L51.4,27C51.4,27.5 51,27.8 50.6,27.8C50.1,27.8 49.8,27.4 49.8,27L49.8,23.8ZM49.8,31.9C49.8,31.4 50.2,31.1 50.6,31.1C51.1,31.1 51.4,31.5 51.4,31.9L51.4,35.1C51.4,35.6 51,35.9 50.6,35.9C50.1,35.9 49.8,35.5 49.8,35.1L49.8,31.9ZM49.8,40.1C49.8,39.6 50.2,39.3 50.6,39.3C51.1,39.3 51.4,39.7 51.4,40.1L51.4,43.3C51.4,43.8 51,44.1 50.6,44.1C50.1,44.1 49.8,43.7 49.8,43.3L49.8,40.1ZM18,50.1L14.8,50.1C14.3,50.1 14,49.7 14,49.3C14,48.8 14.4,48.5 14.8,48.5L18,48.5C18.5,48.5 18.8,48.9 18.8,49.3C18.8,49.7 18.5,50.1 18,50.1ZM25.4,50.4L22.2,50.4C21.7,50.4 21.4,50 21.4,49.6C21.4,49.1 21.8,48.8 22.2,48.8L25.4,48.8C25.9,48.8 26.2,49.2 26.2,49.6C26.2,50 25.8,50.4 25.4,50.4ZM34.3,50.4L31.1,50.4C30.6,50.4 30.3,50 30.3,49.6C30.3,49.1 30.7,48.8 31.1,48.8L34.3,48.8C34.8,48.8 35.1,49.2 35.1,49.6C35.1,50 34.7,50.4 34.3,50.4ZM43.1,50.4L39.9,50.4C39.4,50.4 39.1,50 39.1,49.6C39.1,49.1 39.5,48.8 39.9,48.8L43.1,48.8C43.6,48.8 43.9,49.2 43.9,49.6C43.9,50 43.6,50.4 43.1,50.4ZM51.4,83.4C51.4,83.9 51,84.2 50.6,84.2C50.1,84.2 49.8,83.8 49.8,83.4L49.8,80.2C49.8,79.7 50.2,79.4 50.6,79.4C51.1,79.4 51.4,79.8 51.4,80.2L51.4,83.4ZM51.4,75.2C51.4,75.7 51,76 50.6,76C50.1,76 49.8,75.6 49.8,75.2L49.8,72C49.8,71.5 50.2,71.2 50.6,71.2C51.1,71.2 51.4,71.6 51.4,72L51.4,75.2ZM51.4,67.1C51.4,67.6 51,67.9 50.6,67.9C50.1,67.9 49.8,67.5 49.8,67.1L49.8,63.9C49.8,63.4 50.2,63.1 50.6,63.1C51.1,63.1 51.4,63.5 51.4,63.9L51.4,67.1ZM51.4,59C51.4,59.5 51,59.8 50.6,59.8C50.1,59.8 49.8,59.4 49.8,59L49.8,55.8C49.8,55.3 50.2,55 50.6,55C51.1,55 51.4,55.4 51.4,55.8L51.4,59ZM52,50.4L51.5,50.4L51.5,50.9C51.5,51.4 51.1,51.7 50.7,51.7C50.2,51.7 49.9,51.3 49.9,50.9L49.9,50.4L48.9,50.4C48.4,50.4 48.1,50 48.1,49.6C48.1,49.1 48.5,48.8 48.9,48.8L49.9,48.8L49.9,48.2C49.9,47.7 50.3,47.4 50.7,47.4C51.2,47.4 51.5,47.8 51.5,48.2L51.5,48.8L52,48.8C52.5,48.8 52.8,49.2 52.8,49.6C52.8,50 52.4,50.4 52,50.4ZM60.4,50.4L57.7,50.4C57.2,50.4 56.9,50 56.9,49.6C56.9,49.1 57.3,48.8 57.7,48.8L60.4,48.8C60.9,48.8 61.2,49.2 61.2,49.6C61.2,50 60.8,50.4 60.4,50.4ZM69.2,50.4L66,50.4C65.5,50.4 65.2,50 65.2,49.6C65.2,49.1 65.6,48.8 66,48.8L69.2,48.8C69.7,48.8 70,49.2 70,49.6C70.1,50 69.7,50.4 69.2,50.4ZM78.1,50.4L74.9,50.4C74.4,50.4 74.1,50 74.1,49.6C74.1,49.1 74.5,48.8 74.9,48.8L78.1,48.8C78.6,48.8 78.9,49.2 78.9,49.6C78.9,50 78.5,50.4 78.1,50.4ZM87,50.4L83.8,50.4C83.3,50.4 83,50 83,49.6C83,49.1 83.4,48.8 83.8,48.8L87,48.8C87.5,48.8 87.8,49.2 87.8,49.6C87.8,50 87.4,50.4 87,50.4Z" style="fill:white;fill-rule:nonzero;"/>
        <g transform="matrix(0.0241473,0,0,0.0241473,39.7827,39.7827)">
            <path d="M105,327L327,327L327,105C327,-23 520,-23 520,105L520,327L742,327C869,327 869,520 742,520L520,520L520,742C520,869 327,869 327,742L327,520L105,520C-23,520 -23,327 105,327Z"/>
        </g>
    </g>
</svg>
