<svg clip-rule="evenodd" fill-rule="evenodd" stroke-linejoin="round" stroke-miterlimit="2" viewBox="0 0 96 96" xmlns="http://www.w3.org/2000/svg"><g fill="#fff" fill-rule="nonzero"><path d="m23.3.5h-18.2c-2.5 0-4.6 2.1-4.6 4.6v18.2c0 2.5 2.1 4.6 4.6 4.6h18.2c2.5 0 4.6-2 4.6-4.6v-18.2c0-2.5-2.1-4.6-4.6-4.6zm0 22.8h-18.3l.1-18.3h18.2l.1.1z"/><path d="m57.1.5h-18.2c-2.5 0-4.6 2.1-4.6 4.6v18.2c0 2.5 2.1 4.6 4.6 4.6h18.2c2.5 0 4.6-2 4.6-4.6v-18.2c0-2.5-2.1-4.6-4.6-4.6zm0 22.8-18.2-.1v-18.2h18.2l.1.1z"/><path d="m23.3 34.3h-18.2c-2.5 0-4.6 2.1-4.6 4.6v18.2c0 2.5 2.1 4.6 4.6 4.6h18.2c2.5 0 4.6-2.1 4.6-4.6v-18.2c0-2.5-2.1-4.6-4.6-4.6zm0 22.9-18.3-.1.1-18.2h18.2l.1.1z"/><path d="m57.1 34.3h-18.2c-2.5 0-4.6 2.1-4.6 4.6v18.2c0 2.5 2.1 4.6 4.6 4.6h18.2c2.5 0 4.6-2.1 4.6-4.6v-18.2c0-2.5-2.1-4.6-4.6-4.6zm0 22.9-18.2-.1.1-18.2h18.2l.1.1z"/><path d="m90.9.5h-18.2c-2.5 0-4.6 2.1-4.6 4.6v18.2c0 2.5 2.1 4.6 4.6 4.6h18.2c2.5 0 4.6-2 4.6-4.6v-18.2c0-2.5-2.1-4.6-4.6-4.6zm0 22.8-18.2-.1v-18.2h18.2l.1.1z"/><path d="m90.9 34.3h-18.2c-2.5 0-4.6 2.1-4.6 4.6v18.2c0 2.5 2.1 4.6 4.6 4.6h18.2c2.5 0 4.6-2.1 4.6-4.6v-18.2c0-2.5-2.1-4.6-4.6-4.6zm0 22.9-18.2-.1.1-18.2h18.2l.1.1z"/><path d="m23.3 68.1h-18.2c-2.5 0-4.6 2-4.6 4.6v18.2c0 2.5 2.1 4.6 4.6 4.6h18.2c2.5 0 4.6-2.1 4.6-4.6v-18.2c0-2.5-2.1-4.6-4.6-4.6zm0 22.9-18.3-.1.1-18.2h18.2l.1.1z"/><path d="m57.1 68.1h-18.2c-2.5 0-4.6 2-4.6 4.6v18.2c0 2.5 2.1 4.6 4.6 4.6h18.2c2.5 0 4.6-2.1 4.6-4.6v-18.2c0-2.5-2.1-4.6-4.6-4.6zm0 22.9-18.2-.1.1-18.2h18.2l.1.1z"/><path d="m90.9 68.1h-18.2c-2.5 0-4.6 2-4.6 4.6v18.2c0 2.5 2.1 4.6 4.6 4.6h18.2c2.5 0 4.6-2.1 4.6-4.6v-18.2c0-2.5-2.1-4.6-4.6-4.6zm0 22.9-18.2-.1.1-18.2h18.2l.1.1z"/></g></svg>