<?xml version="1.0" encoding="UTF-8" standalone="no"?>
<!DOCTYPE svg PUBLIC "-//W3C//DTD SVG 1.1//EN" "http://www.w3.org/Graphics/SVG/1.1/DTD/svg11.dtd">
<svg width="100%" height="100%" viewBox="0 0 100 100" version="1.1" xmlns="http://www.w3.org/2000/svg"
    xmlns:xlink="http://www.w3.org/1999/xlink" xml:space="preserve" xmlns:serif="http://www.serif.com/"
    style="fill-rule:evenodd;clip-rule:evenodd;stroke-linejoin:round;stroke-miterlimit:2;">
    <g>
        <g>
            <path
                d="M49.8,80.8L49.8,84C49.8,84.5 50.2,84.8 50.6,84.8C51.1,84.8 51.4,84.4 51.4,84L51.4,80.8C51.4,80.3 51,80 50.6,80C50.1,80 49.8,80.4 49.8,80.8Z"
                style="fill:grey;fill-rule:nonzero;" />
            <path
                d="M49.8,70.9L49.8,74.1C49.8,74.6 50.2,74.9 50.6,74.9C51.1,74.9 51.4,74.5 51.4,74.1L51.4,70.9C51.4,70.4 51,70.1 50.6,70.1C50.1,70 49.8,70.4 49.8,70.9Z"
                style="fill:grey;fill-rule:nonzero;" />
            <path
                d="M49.8,60.9L49.8,64.1C49.8,64.6 50.2,64.9 50.6,64.9C51.1,64.9 51.4,64.5 51.4,64.1L51.4,60.9C51.4,60.4 51,60.1 50.6,60.1C50.1,60.1 49.8,60.4 49.8,60.9Z"
                style="fill:grey;fill-rule:nonzero;" />
            <path
                d="M77.5,22.5C70.1,15.1 61.1,11.3 50.6,11.3C40.1,11.3 31,15.1 23.6,22.5C16.2,29.9 12.4,39 12.4,49.5C12.4,60 16.2,69 23.6,76.4C31,83.8 40.1,87.6 50.6,87.6C61,87.6 70.1,83.8 77.5,76.4C84.9,69 88.7,60 88.7,49.5C88.7,39 84.9,29.9 77.5,22.5ZM76.3,75.2C69.2,82.3 60.6,85.9 50.6,85.9C40.6,85.9 31.9,82.3 24.8,75.2C17.7,68.2 14.1,59.5 14.1,49.5C14.1,39.3 17.6,30.9 24.8,23.7C31.8,16.7 40,13.2 49.7,13L49.7,48.6L47.3,48.6C46.8,48.6 46.5,49 46.5,49.4C46.5,49.8 46.9,50.2 47.3,50.2L50,50.2C49.8,50.3 49.6,50.6 49.6,50.9L49.6,54.1C49.6,54.6 50,54.9 50.4,54.9C50.9,54.9 51.2,54.5 51.2,54.1L51.2,51C51.2,50.7 51,50.5 50.8,50.3L87,50.3C86.8,59.9 83.2,68.3 76.3,75.2Z"
                style="fill:grey;fill-rule:nonzero;" />
            <path
                d="M37.4,48.6C36.9,48.6 36.6,49 36.6,49.4C36.6,49.9 37,50.2 37.4,50.2L40.6,50.2C41.1,50.2 41.4,49.8 41.4,49.4C41.4,48.9 41,48.6 40.6,48.6L37.4,48.6Z"
                style="fill:grey;fill-rule:nonzero;" />
            <path
                d="M27.5,48.6C27,48.6 26.7,49 26.7,49.4C26.7,49.9 27.1,50.2 27.5,50.2L30.7,50.2C31.2,50.2 31.5,49.8 31.5,49.4C31.5,48.9 31.1,48.6 30.7,48.6L27.5,48.6Z"
                style="fill:grey;fill-rule:nonzero;" />
            <path
                d="M17.5,48.6C17,48.6 16.7,49 16.7,49.4C16.7,49.9 17.1,50.2 17.5,50.2L20.7,50.2C21.2,50.2 21.5,49.8 21.5,49.4C21.5,48.9 21.1,48.6 20.7,48.6L17.5,48.6Z"
                style="fill:grey;fill-rule:nonzero;" />
        </g>
    </g>
    <g transform="matrix(6.12323e-17,1,-1,6.12323e-17,100,-1.1)">
        <g>
            <path
                d="M49.8,80.8L49.8,84C49.8,84.5 50.2,84.8 50.6,84.8C51.1,84.8 51.4,84.4 51.4,84L51.4,80.8C51.4,80.3 51,80 50.6,80C50.1,80 49.8,80.4 49.8,80.8Z"
                style="fill:grey;fill-rule:nonzero;" />
            <path
                d="M49.8,70.9L49.8,74.1C49.8,74.6 50.2,74.9 50.6,74.9C51.1,74.9 51.4,74.5 51.4,74.1L51.4,70.9C51.4,70.4 51,70.1 50.6,70.1C50.1,70 49.8,70.4 49.8,70.9Z"
                style="fill:grey;fill-rule:nonzero;" />
            <path
                d="M49.8,60.9L49.8,64.1C49.8,64.6 50.2,64.9 50.6,64.9C51.1,64.9 51.4,64.5 51.4,64.1L51.4,60.9C51.4,60.4 51,60.1 50.6,60.1C50.1,60.1 49.8,60.4 49.8,60.9Z"
                style="fill:grey;fill-rule:nonzero;" />
            <path
                d="M77.5,22.5C70.1,15.1 61.1,11.3 50.6,11.3C40.1,11.3 31,15.1 23.6,22.5C16.2,29.9 12.4,39 12.4,49.5C12.4,60 16.2,69 23.6,76.4C31,83.8 40.1,87.6 50.6,87.6C61,87.6 70.1,83.8 77.5,76.4C84.9,69 88.7,60 88.7,49.5C88.7,39 84.9,29.9 77.5,22.5ZM76.3,75.2C69.2,82.3 60.6,85.9 50.6,85.9C40.6,85.9 31.9,82.3 24.8,75.2C17.7,68.2 14.1,59.5 14.1,49.5C14.1,39.3 17.6,30.9 24.8,23.7C31.8,16.7 40,13.2 49.7,13L49.7,48.6L47.3,48.6C46.8,48.6 46.5,49 46.5,49.4C46.5,49.8 46.9,50.2 47.3,50.2L50,50.2C49.8,50.3 49.6,50.6 49.6,50.9L49.6,54.1C49.6,54.6 50,54.9 50.4,54.9C50.9,54.9 51.2,54.5 51.2,54.1L51.2,51C51.2,50.7 51,50.5 50.8,50.3L87,50.3C86.8,59.9 83.2,68.3 76.3,75.2Z"
                style="fill:grey;fill-rule:nonzero;" />
            <path
                d="M37.4,48.6C36.9,48.6 36.6,49 36.6,49.4C36.6,49.9 37,50.2 37.4,50.2L40.6,50.2C41.1,50.2 41.4,49.8 41.4,49.4C41.4,48.9 41,48.6 40.6,48.6L37.4,48.6Z"
                style="fill:grey;fill-rule:nonzero;" />
            <path
                d="M27.5,48.6C27,48.6 26.7,49 26.7,49.4C26.7,49.9 27.1,50.2 27.5,50.2L30.7,50.2C31.2,50.2 31.5,49.8 31.5,49.4C31.5,48.9 31.1,48.6 30.7,48.6L27.5,48.6Z"
                style="fill:grey;fill-rule:nonzero;" />
            <path
                d="M17.5,48.6C17,48.6 16.7,49 16.7,49.4C16.7,49.9 17.1,50.2 17.5,50.2L20.7,50.2C21.2,50.2 21.5,49.8 21.5,49.4C21.5,48.9 21.1,48.6 20.7,48.6L17.5,48.6Z"
                style="fill:grey;fill-rule:nonzero;" />
        </g>
    </g>
</svg>