<?xml version="1.0" encoding="UTF-8" standalone="no"?>
<!DOCTYPE svg PUBLIC "-//W3C//DTD SVG 1.1//EN" "http://www.w3.org/Graphics/SVG/1.1/DTD/svg11.dtd">
<svg width="100%" height="100%" viewBox="0 0 100 100" version="1.1" xmlns="http://www.w3.org/2000/svg" xmlns:xlink="http://www.w3.org/1999/xlink" xml:space="preserve" xmlns:serif="http://www.serif.com/" style="fill-rule:evenodd;clip-rule:evenodd;stroke-linejoin:round;stroke-miterlimit:2;">
    <g transform="matrix(3.06313,0,0,3.06313,0.989808,0.946956)">
        <path d="M21.081,30.841L11.347,30.841C10.168,30.839 9.198,29.87 9.197,28.69L9.197,27.193C9.165,26.105 8.66,25.082 7.815,24.395C6.771,23.377 6.182,21.979 6.182,20.521L6.182,9.373C6.182,7.873 7.416,6.638 8.916,6.638C9.185,6.638 9.452,6.678 9.709,6.756L9.709,5.905C9.719,4.389 10.97,3.146 12.486,3.146C12.767,3.146 13.046,3.189 13.314,3.272C13.627,2.049 14.737,1.187 16,1.187C17.267,1.187 18.38,2.056 18.689,3.284C18.968,3.191 19.26,3.144 19.554,3.144C21.055,3.144 22.29,4.379 22.291,5.88L22.291,8.807C22.55,8.728 22.818,8.687 23.089,8.687C24.586,8.687 25.818,9.919 25.818,11.417L25.818,20.521C25.822,21.957 25.251,23.337 24.232,24.35C23.034,25.395 23.226,27.266 23.232,28.69C23.23,29.87 22.26,30.84 21.081,30.841ZM8.947,8.654C8.932,8.653 8.917,8.653 8.902,8.653C8.506,8.653 8.18,8.979 8.18,9.375C8.18,9.391 8.18,9.408 8.181,9.424L8.182,20.521C8.179,21.426 8.54,22.297 9.182,22.936C10.453,23.991 11.192,25.558 11.197,27.21L11.197,28.69C11.197,28.773 11.265,28.841 11.347,28.841L21.081,28.841C21.164,28.841 21.232,28.773 21.232,28.69L21.232,26.765C21.228,25.328 21.799,23.948 22.818,22.936C23.46,22.297 23.821,21.426 23.818,20.521L23.818,11.448C23.812,11.033 23.47,10.696 23.055,10.696C22.636,10.696 22.291,11.04 22.291,11.459L22.291,15.595C22.291,16.546 21.686,17.399 20.788,17.713C20.001,17.876 19.441,18.59 19.469,19.393C19.462,19.936 19.013,20.379 18.469,20.379C17.926,20.379 17.477,19.936 17.469,19.393C17.451,17.745 18.545,16.278 20.129,15.824C20.227,15.791 20.293,15.698 20.291,15.595L20.291,5.905C20.281,5.493 19.94,5.16 19.527,5.16C19.11,5.16 18.766,5.502 18.764,5.92L18.764,12.909C18.756,13.452 18.307,13.895 17.764,13.895C17.22,13.895 16.771,13.452 16.764,12.909L16.764,3.923C16.755,3.51 16.413,3.175 16,3.175C15.587,3.175 15.245,3.51 15.236,3.923L15.236,12.909C15.229,13.452 14.78,13.895 14.236,13.895C13.693,13.895 13.244,13.452 13.236,12.909L13.236,5.905C13.228,5.492 12.886,5.157 12.473,5.157C12.059,5.157 11.717,5.492 11.709,5.905L11.709,12.909C11.701,13.452 11.252,13.895 10.709,13.895C10.166,13.895 9.717,13.452 9.709,12.909L9.709,9.398C9.71,9.387 9.71,9.376 9.71,9.365C9.71,8.974 9.388,8.653 8.997,8.653C8.98,8.653 8.964,8.653 8.947,8.654Z" style="fill:white;fill-rule:nonzero;"/>
    </g>
</svg>
