<?xml version="1.0" encoding="UTF-8" standalone="no"?><!DOCTYPE svg PUBLIC "-//W3C//DTD SVG 1.1//EN" "http://www.w3.org/Graphics/SVG/1.1/DTD/svg11.dtd"><svg width="100%" height="100%" viewBox="0 0 96 96" version="1.1" xmlns="http://www.w3.org/2000/svg" xmlns:xlink="http://www.w3.org/1999/xlink" xml:space="preserve" xmlns:serif="http://www.serif.com/" style="fill-rule:evenodd;clip-rule:evenodd;stroke-linejoin:round;stroke-miterlimit:2;"><path d="M75.2,27.7l-36.2,0c-4,-2.7 -8.7,-4.3 -13.9,-4.3c-13.6,0 -24.6,11 -24.6,24.6c0,13.6 11,24.6 24.6,24.6c5.2,0 9.9,-1.6 13.9,-4.3l36.2,0c11.2,0 20.3,-9.1 20.3,-20.3c0,-11.2 -9.1,-20.3 -20.3,-20.3Zm-70.3,20.3c-0,-11.2 9.1,-20.2 20.2,-20.2c11.2,0 20.2,9.1 20.2,20.2c-0,11.1 -9.1,20.2 -20.2,20.2c-11.1,0 -20.2,-9 -20.2,-20.2Zm72.2,6c0.9,0.9 0.9,2.2 -0,3.1c-0.4,0.4 -1,0.6 -1.6,0.6c-0.6,0 -1.1,-0.2 -1.6,-0.6l-6,-6l-6,6c-0.4,0.4 -1,0.6 -1.6,0.6c-0.6,0 -1.1,-0.2 -1.6,-0.6c-0.9,-0.9 -0.9,-2.2 -0,-3.1l6,-6l-6,-6c-0.9,-0.9 -0.9,-2.2 -0,-3.1c0.9,-0.9 2.2,-0.9 3.1,0l6,6l6,-6c0.9,-0.9 2.2,-0.9 3.1,0c0.9,0.9 0.9,2.2 0,3.1l-6,6l6.2,6Z" style="fill:#fff;fill-rule:nonzero;"/></svg>