<svg clip-rule="evenodd" fill-rule="evenodd" stroke-linejoin="round" stroke-miterlimit="2" viewBox="0 0 96 96" xmlns="http://www.w3.org/2000/svg"><path d="m75.2 27.7h-36.2c-4-2.7-8.7-4.3-13.9-4.3-13.6 0-24.6 11-24.6 24.6s11 24.6 24.6 24.6c5.2 0 9.9-1.6 13.9-4.3h36.2c11.2 0 20.3-9.1 20.3-20.3s-9.1-20.3-20.3-20.3zm-70.3 20.3c0-11.2 9.1-20.2 20.2-20.2 11.2 0 20.2 9.1 20.2 20.2s-9.1 20.2-20.2 20.2-20.2-9-20.2-20.2zm72.2 6c.9.9.9 2.2 0 3.1-.4.4-1 .6-1.6.6s-1.1-.2-1.6-.6l-6-6-6 6c-.4.4-1 .6-1.6.6s-1.1-.2-1.6-.6c-.9-.9-.9-2.2 0-3.1l6-6-6-6c-.9-.9-.9-2.2 0-3.1s2.2-.9 3.1 0l6 6 6-6c.9-.9 2.2-.9 3.1 0s.9 2.2 0 3.1l-6 6z" fill="#fff" fill-rule="nonzero"/></svg>