<?xml version="1.0" encoding="UTF-8" standalone="no"?><!DOCTYPE svg PUBLIC "-//W3C//DTD SVG 1.1//EN" "http://www.w3.org/Graphics/SVG/1.1/DTD/svg11.dtd"><svg width="100%" height="100%" viewBox="0 0 96 96" version="1.1" xmlns="http://www.w3.org/2000/svg" xmlns:xlink="http://www.w3.org/1999/xlink" xml:space="preserve" xmlns:serif="http://www.serif.com/" style="fill-rule:evenodd;clip-rule:evenodd;stroke-linejoin:round;stroke-miterlimit:2;"><g><g><path d="M83.499,35.75l-0.3,0c0,-19.4 -15.8,-35.2 -35.2,-35.2c-19.4,0 -35.2,15.8 -35.2,35.2l-0.3,0c-4.9,0 -8.8,4 -8.8,8.8l0,42.1c0,4.9 4,8.8 8.8,8.8l71,-0c4.9,-0 8.8,-4 8.8,-8.8l0,-42.1c0.1,-4.9 -3.9,-8.8 -8.8,-8.8Zm-58.7,0c0,-12.8 10.4,-23.2 23.2,-23.2c12.8,0 23.2,10.4 23.2,23.2l-46.4,0Z" style="fill:#fff;fill-rule:nonzero;"/></g></g></svg>