<?xml version="1.0" encoding="UTF-8" standalone="no"?>
<!DOCTYPE svg PUBLIC "-//W3C//DTD SVG 1.1//EN" "http://www.w3.org/Graphics/SVG/1.1/DTD/svg11.dtd">
<svg width="100%" height="100%" viewBox="0 0 100 100" version="1.1" xmlns="http://www.w3.org/2000/svg" xmlns:xlink="http://www.w3.org/1999/xlink" xml:space="preserve" xmlns:serif="http://www.serif.com/" style="fill-rule:evenodd;clip-rule:evenodd;stroke-linejoin:round;stroke-miterlimit:2;">
    <g transform="matrix(3.11529,0,0,3.11529,4.71263,0.113246)">
        <path d="M21.08,30.84L11.35,30.84C10.171,30.839 9.201,29.869 9.2,28.69C9.245,27.9 9.207,27.107 9.087,26.324C3.609,27.357 0.716,19.699 6.18,17.116L6.18,9.372C6.18,7.875 7.412,6.644 8.908,6.644C9.18,6.644 9.45,6.684 9.709,6.764L9.709,5.905C9.719,4.389 10.97,3.146 12.486,3.146C12.767,3.146 13.046,3.189 13.314,3.272C13.627,2.049 14.737,1.187 16,1.187C17.267,1.187 18.381,2.055 18.69,3.284C18.968,3.192 19.259,3.145 19.553,3.145C21.054,3.145 22.289,4.379 22.291,5.88L22.291,8.805C22.55,8.726 22.819,8.686 23.089,8.686C24.587,8.686 25.82,9.918 25.82,11.417L25.82,20.52C25.821,21.952 25.253,23.327 24.242,24.342C23.033,25.4 23.224,27.255 23.231,28.69C23.229,29.869 22.259,30.839 21.08,30.84ZM10.922,25.484C11.189,26.531 11.283,27.614 11.2,28.69L11.2,28.697C11.2,28.775 11.265,28.84 11.343,28.84L21.086,28.84C21.165,28.84 21.231,28.775 21.231,28.695C21.231,28.693 21.231,28.692 21.23,28.69L21.23,26.77C21.228,25.33 21.802,23.947 22.823,22.933C23.461,22.292 23.82,21.424 23.82,20.52L23.82,11.45C23.815,11.034 23.472,10.694 23.056,10.694C22.646,10.694 22.305,11.024 22.291,11.434L22.291,13.962C22.306,13.998 22.278,15.55 22.29,15.59C22.288,16.538 21.69,17.389 20.798,17.711C20.008,17.871 19.444,18.584 19.47,19.39C19.462,19.933 19.013,20.376 18.47,20.376C17.926,20.376 17.477,19.933 17.47,19.39C17.452,17.743 18.546,16.277 20.13,15.825C20.227,15.788 20.292,15.694 20.29,15.59C20.293,13.238 20.29,8.285 20.291,5.905C20.286,5.49 19.943,5.152 19.527,5.152C19.108,5.152 18.764,5.496 18.764,5.915L18.764,12.909C18.756,13.452 18.307,13.895 17.764,13.895C17.22,13.895 16.771,13.452 16.764,12.909L16.764,3.923C16.755,3.51 16.413,3.175 16,3.175C15.587,3.175 15.245,3.51 15.236,3.923L15.236,12.909C15.229,13.452 14.78,13.895 14.236,13.895C13.693,13.895 13.244,13.452 13.236,12.909L13.236,5.905C13.228,5.492 12.886,5.157 12.473,5.157C12.06,5.157 11.717,5.492 11.709,5.905L11.709,9.345C11.687,9.366 11.727,12.882 11.71,12.91C11.702,13.453 11.253,13.896 10.71,13.896C10.166,13.896 9.716,13.453 9.709,12.909L9.709,9.356C9.709,8.975 9.395,8.661 9.014,8.661C8.992,8.661 8.969,8.662 8.947,8.664C8.928,8.663 8.91,8.662 8.891,8.662C8.5,8.662 8.179,8.983 8.179,9.374C8.179,9.387 8.179,9.401 8.18,9.415L8.18,16.724C10.788,16.803 12.89,18.97 12.89,21.579C12.89,23.118 12.159,24.569 10.922,25.484ZM6.926,24.145C9.242,25.376 11.862,22.531 10.656,20.414L6.926,24.145ZM6.078,19.567C5.213,20.378 4.983,21.669 5.512,22.729L9.238,19.004C8.177,18.486 6.894,18.715 6.078,19.567Z" style="fill:white;fill-rule:nonzero;"/>
    </g>
</svg>
