<svg clip-rule="evenodd" fill-rule="evenodd" stroke-linejoin="round" stroke-miterlimit="2" viewBox="0 0 96 96" xmlns="http://www.w3.org/2000/svg"><path d="m80.933 37.592c0 16.613-12.411 30.392-28.438 32.542v16.809h8.991c2.443 0 4.495 2.052 4.495 4.495s-2.052 4.495-4.495 4.495h-26.972c-2.443 0-4.495-2.052-4.495-4.495s2.052-4.495 4.495-4.495h8.991v-16.809c-16.027-2.15-28.438-15.929-28.438-32.542 0-2.443 2.053-4.495 4.496-4.495s4.495 2.052 4.495 4.495c0 13.193 10.749 23.943 23.942 23.943s23.942-10.75 23.942-23.943c0-2.443 2.052-4.495 4.495-4.495s4.496 1.955 4.496 4.495zm-32.933 16.418c-9.87 0-17.981-8.013-17.981-17.981v-17.981c0-9.87 8.013-17.981 17.981-17.981 9.87 0 17.981 8.013 17.981 17.981v17.981c0 9.968-8.111 17.981-17.981 17.981z" fill="#fff"/></svg>