<?xml version="1.0" encoding="UTF-8" standalone="no"?>
<!DOCTYPE svg PUBLIC "-//W3C//DTD SVG 1.1//EN" "http://www.w3.org/Graphics/SVG/1.1/DTD/svg11.dtd">
<svg width="100%" height="100%" viewBox="0 0 100 100" version="1.1" xmlns="http://www.w3.org/2000/svg" xmlns:xlink="http://www.w3.org/1999/xlink" xml:space="preserve" xmlns:serif="http://www.serif.com/" style="fill-rule:evenodd;clip-rule:evenodd;stroke-linejoin:round;stroke-miterlimit:2;">
    <g transform="matrix(3.22531,0,0,3.17204,-111.265,-0.752585)">
        <g transform="matrix(1,0,0,1,34,0)">
            <path d="M21.48,6.28C20.82,5.95 20.08,5.78 19.3,5.78L10.58,5.78C9.38,5.78 8.2,6.2 7.28,6.97L3.86,9.82C2.68,10.81 2,12.25 2,13.79L2,21.06C2,22.36 2.49,23.56 3.29,24.47L21.48,6.28Z" style="fill:white;fill-rule:nonzero;"/>
        </g>
        <g transform="matrix(1,0,0,1,34,0)">
            <path d="M29.707,2.293C29.316,1.902 28.684,1.902 28.293,2.293L2.293,28.293C1.902,28.683 1.902,29.316 2.293,29.707C2.488,29.902 2.744,30 3,30C3.256,30 3.512,29.902 3.707,29.707L7.194,26.22L19.3,26.22C22.14,26.22 24.46,23.91 24.46,21.06L24.46,20.51L26.57,22.48C26.96,22.85 27.45,23.04 27.95,23.04C28.22,23.04 28.5,22.98 28.77,22.87C29.53,22.54 30,21.82 30,20.99L30,11.01C30,10.18 29.53,9.46 28.77,9.13C28.19,8.89 27.57,8.91 27.05,9.19C26.88,9.27 26.72,9.38 26.57,9.52L24.46,11.49L24.46,10.94C24.46,10.348 24.349,9.783 24.161,9.253L29.707,3.707C30.098,3.316 30.098,2.684 29.707,2.293Z" style="fill:white;fill-rule:nonzero;"/>
        </g>
    </g>
</svg>
