<svg clip-rule="evenodd" fill-rule="evenodd" stroke-linejoin="round" stroke-miterlimit="2" viewBox="0 0 96 96" xmlns="http://www.w3.org/2000/svg"><g fill="#fff" fill-rule="nonzero"><path d="m86.213.55c-1.1-1.1-2.8-1.1-3.9-.1l-72.5 69.4c-1.1 1.1-1.1 2.8-.1 3.9.5.5 1.1.8 1.7.8.8.1 1.6-.2 2.2-.8l72.5-69.4c1.2-1 1.2-2.7.1-3.8z"/><path d="m26.013 48.05c-1.6-3.2-2.5-6.9-2.5-10.8 0-2.5-2.1-4.6-4.6-4.6s-4.6 2.1-4.6 4.6c0 6.3 1.8 12.3 4.8 17.3z"/><path d="m77.113 32.65c-2.5 0-4.6 2.1-4.6 4.6 0 13.5-11 24.5-24.5 24.5-4.3 0-8.3-1.1-11.8-3l-6.8 6.6c4.1 2.8 8.9 4.6 14.1 5.3v17.2h-9.2c-2.5 0-4.6 2.1-4.6 4.6s2.1 4.6 4.6 4.6h27.6c2.5 0 4.6-2.1 4.6-4.6s-2.1-4.6-4.6-4.6h-9.2v-17.2c16.4-2.2 29.1-16.3 29.1-33.3-.1-2.7-2.2-4.7-4.7-4.7z"/><path d="m65.113 10.55c-.9-2.4-2.3-4.5-4.1-6.2-3.3-3.3-7.9-5.4-13-5.4-10.2 0-18.4 8.2-18.4 18.4v18.4c0 2.6.6 5.1 1.5 7.4z"/><path d="m66.413 35.75v-5.9l-24.3 23.3c1.9.6 3.9 1 6 1 10-.1 18.3-8.3 18.3-18.4z"/></g></svg>