<svg clip-rule="evenodd" fill-rule="evenodd" stroke-linejoin="round" stroke-miterlimit="2" viewBox="0 0 96 96" xmlns="http://www.w3.org/2000/svg"><g fill="#fff" fill-rule="nonzero"><path d="m18.9 25.65c-1.6-.7-3.4.1-4 1.6-1.6 3.9-2.5 8.1-2.5 12.4s.8 8.5 2.5 12.4c.5 1.2 1.6 1.9 2.8 1.9.4 0 .8-.1 1.2-.2 1.6-.7 2.3-2.5 1.6-4-1.3-3.2-2-6.5-2-10s.7-6.9 2-10c.7-1.6 0-3.4-1.6-4.1z"/><path d="m10.3 16.95c-1.5-.9-3.3-.3-4.2 1.2-3.7 6.6-5.6 14-5.6 21.6s1.9 15 5.6 21.6c.6 1 1.6 1.6 2.7 1.6.5 0 1-.1 1.5-.4 1.5-.8 2-2.7 1.2-4.2-3.2-5.6-4.8-12.1-4.8-18.6s1.7-12.9 4.8-18.6c.8-1.5.3-3.4-1.2-4.2z"/><path d="m77.1 25.65c-1.6.7-2.3 2.5-1.6 4 1.3 3.2 2 6.5 2 10s-.7 6.9-2 10c-.7 1.6.1 3.4 1.6 4 .4.2.8.2 1.2.2 1.2 0 2.3-.7 2.8-1.9 1.6-3.9 2.5-8.1 2.5-12.4s-.8-8.5-2.5-12.4c-.6-1.4-2.4-2.2-4-1.5z"/><path d="m89.9 18.15c-.8-1.5-2.7-2-4.2-1.2s-2 2.7-1.2 4.2c3.2 5.6 4.8 12.1 4.8 18.6s-1.7 12.9-4.8 18.6c-.8 1.5-.3 3.4 1.2 4.2.5.3 1 .4 1.5.4 1.1 0 2.1-.6 2.7-1.6 3.7-6.6 5.6-14 5.6-21.6s-1.9-15.1-5.6-21.6z"/><path d="m54.1 11.85h-12.2c-7.5 0-13.6 6.1-13.6 13.6v28.4c0 7.5 6.1 13.6 13.6 13.6h3v9.9h-1.5c-3.9 0-7.2 2.1-9 5.3-.4.7.1 1.5.9 1.5h25.4c.8 0 1.3-.8.9-1.5-1.8-3.2-5.1-5.3-9-5.3h-1.5v-9.9h3c7.5 0 13.6-6.1 13.6-13.6v-28.4c0-7.5-6.1-13.6-13.6-13.6zm0 49.5h-12.2c-4 0-7.2-3.2-7.4-7.1h6.6c1.7 0 3.1-1.4 3.1-3.1s-1.3-3.1-3-3.1h-6.7v-5.3h6.7c1.7 0 3.1-1.4 3.1-3.1s-1.4-3.1-3.1-3.1h-6.7v-5.3h6.7c1.7 0 3.1-1.4 3.1-3.1s-1.4-3.1-3.1-3.1h-6.6c.2-3.9 3.4-7.1 7.4-7.1h12.1c4 0 7.2 3.2 7.4 7.1h-6.6c-1.7 0-3.1 1.4-3.1 3.1s1.4 3.1 3.1 3.1h6.7v5.3h-6.7c-1.7 0-3.1 1.4-3.1 3.1s1.4 3.1 3.1 3.1h6.7v5.3h-6.7c-1.7 0-3.1 1.4-3.1 3.1s1.4 3.1 3.1 3.1h6.6c-.2 3.9-3.5 7.1-7.4 7.1z"/></g></svg>