<svg clip-rule="evenodd" fill-rule="evenodd" stroke-linejoin="round" stroke-miterlimit="2" viewBox="0 0 100 100" xmlns="http://www.w3.org/2000/svg"><g fill="#fff"><path d="m73.227 58.669c.607-.886 1.116-1.797 1.512-2.718.423-.984.749-2.011.966-3.069.203-.991.31-2.069.31-3.226 0-1.156-.108-2.233-.31-3.225-.217-1.057-.543-2.085-.966-3.069-.396-.921-.905-1.832-1.512-2.718-.584-.855-1.261-1.66-2.016-2.403-1.505-1.481-3.27-2.669-5.205-3.475-1.986-.823-2.916-3.075-2.081-5.028.836-1.954 3.125-2.872 5.11-2.049 2.926 1.219 5.54 2.961 7.713 5.1 1.092 1.072 2.087 2.262 2.966 3.547.845 1.233 1.59 2.587 2.215 4.046.62 1.441 1.102 2.96 1.426 4.544.323 1.579.493 3.164.493 4.731 0 1.569-.169 3.153-.493 4.734-.324 1.582-.806 3.102-1.426 4.543-.625 1.458-1.37 2.811-2.215 4.044-.247.361-.502.716-.768 1.06-.913 1.19-1.091.744-2.128-.277-1.237-1.219-1.828-1.8-3.065-3.017-.934-.923-1.241-1.027-.526-2.075z"/><path d="m84.333 69.493c.831-.939 1.6-1.923 2.304-2.949 1.117-1.635 2.066-3.342 2.824-5.105.79-1.837 1.399-3.762 1.808-5.751.391-1.9.594-3.915.594-6.033s-.204-4.132-.594-6.031c-.408-1.989-1.016-3.914-1.808-5.751-.758-1.762-1.707-3.471-2.824-5.104-1.103-1.608-2.37-3.117-3.777-4.502-1.407-1.386-2.94-2.632-4.573-3.716-1.659-1.101-3.397-2.035-5.187-2.781-1.985-.823-2.916-3.075-2.08-5.029.836-1.955 3.125-2.872 5.108-2.048 2.335.972 4.522 2.139 6.533 3.474 2.074 1.376 3.994 2.935 5.737 4.649 1.742 1.716 3.325 3.607 4.723 5.648 1.358 1.979 2.542 4.131 3.529 6.429.987 2.296 1.752 4.714 2.268 7.228.512 2.483.779 5.006.779 7.534 0 2.529-.267 5.053-.777 7.539-.516 2.513-1.281 4.931-2.268 7.227-.987 2.297-2.172 4.448-3.528 6.428-.989 1.443-2.07 2.81-3.232 4.094-.918 1.013-.971.724-1.929-.217-1.243-1.225-2.146-2.112-3.389-3.336-.982-.965-1.137-.885-.241-1.897z"/><path d="m16.224 30.795h-9.183c-3.706 0-6.738 2.985-6.738 6.633v24.996c0 3.647 3.032 6.633 6.738 6.633h15.182c7.8 5.776 15.598 11.555 23.395 17.333 3.555 2.633 7.672 2.211 7.672-2.356v-15.971c0-1.94-.295-2.47-1.701-3.855-10.986-10.814-21.972-21.628-32.958-32.442-.968-.955-1.035-.971-2.407-.971z"/><path d="m7.745 8.408c2.39-2.351 6.299-2.351 8.688 0l75.822 74.633c2.39 2.351 2.39 6.199 0 8.55-2.389 2.353-6.298 2.353-8.687 0l-75.823-74.631c-2.389-2.352-2.389-6.2 0-8.552z"/><path d="m45.619 13.462c-3.244 2.405-6.488 4.808-9.733 7.212-1.79 1.326-.909 1.898.677 3.457 5.087 5.01 10.175 10.018 15.263 15.027 1.134 1.129 1.465.996 1.465-.213v-23.124c0-4.568-4.117-4.992-7.672-2.359z"/></g></svg>