<?xml version="1.0" encoding="UTF-8" standalone="no"?>
<!DOCTYPE svg PUBLIC "-//W3C//DTD SVG 1.1//EN" "http://www.w3.org/Graphics/SVG/1.1/DTD/svg11.dtd">
<svg width="100%" height="100%" viewBox="0 0 993 993" version="1.1" xmlns="http://www.w3.org/2000/svg" xmlns:xlink="http://www.w3.org/1999/xlink" xml:space="preserve" xmlns:serif="http://www.serif.com/" style="fill-rule:evenodd;clip-rule:evenodd;stroke-linejoin:round;stroke-miterlimit:2;">
    <g transform="matrix(1,0,0,1,-18,-20)">
        <path d="M512.059,25.849C780.621,25.849 998.332,243.559 998.332,512.121C998.332,780.683 780.621,998.394 512.059,998.394C243.497,998.394 25.786,780.683 25.786,512.121C25.786,243.559 243.497,25.849 512.059,25.849ZM71.603,512.121C71.603,755.383 268.802,952.577 512.059,952.577C755.316,952.577 952.52,755.383 952.52,512.121C952.52,268.864 755.316,71.665 512.059,71.665C268.802,71.665 71.603,268.864 71.603,512.121Z" style="fill:white;"/>
    </g>
    <g transform="matrix(1,0,0,1,-18,-20)">
        <path d="M684.907,370.502C649.423,432.302 583.384,470.534 512.122,470.534C475.24,470.534 439.073,460.293 407.666,440.958C390.943,430.612 375.813,417.887 362.753,403.184C328.391,364.445 310.478,313.78 312.855,262.051C313.139,256.262 313.623,250.489 314.382,244.742C315.129,239.078 316.128,233.439 317.359,227.868C318.624,222.149 320.139,216.495 321.906,210.906C323.621,205.466 325.576,200.108 327.77,194.832C330.044,189.347 332.58,183.978 335.316,178.71C338.198,173.163 341.389,167.766 344.798,162.526C347.941,157.694 351.289,153.006 354.842,148.464C358.696,143.513 362.792,138.737 367.113,134.187C371.474,129.596 376.03,125.208 380.782,121.025C385.62,116.763 390.694,112.776 395.921,109.003C398.616,107.059 401.362,105.188 404.158,103.392C286.773,163.369 237.981,308.064 295.076,426.878C295.623,428.014 296.179,429.145 296.744,430.273C297,430.785 297.258,431.296 297.518,431.806C297.64,432.129 297.798,432.436 297.988,432.723C298.312,433.082 298.393,433.022 298.888,433.013C301.466,432.966 304.046,432.978 306.624,433.034C311.387,433.137 316.142,433.408 320.89,433.849C410.893,442.355 484.41,511.005 499.052,600.215C502.278,620.125 502.495,640.407 499.693,660.382C494.372,698.048 478.348,733.406 453.532,762.237C439.302,778.758 422.492,792.868 403.755,804.021C366.357,826.106 322.76,835.41 279.605,830.515C271.799,829.622 264.052,828.277 256.402,826.485C251.448,825.322 246.542,823.954 241.692,822.414C263.484,832.072 286.582,838.465 310.239,841.387C332.31,844.112 354.649,843.843 376.649,840.589C415.992,834.727 453.306,819.314 485.317,795.702C508.811,778.387 529.038,757.028 545.051,732.628C545.745,731.569 546.431,730.506 547.108,729.437C547.371,729.023 547.959,728.368 547.883,727.928C547.619,727.237 547.265,726.583 546.832,725.984C545.497,723.479 544.216,720.946 542.988,718.386C540.523,713.241 538.282,707.997 536.266,702.653C532.184,691.825 529.058,680.66 526.926,669.286C522.359,644.837 522.373,619.75 526.967,595.306C530.876,574.541 538.087,554.535 548.324,536.051C583.055,472.97 649.406,433.464 721.414,432.992C726.305,432.958 731.193,433.099 736.077,433.416C740.788,433.73 745.484,434.202 750.165,434.834C754.8,435.468 759.409,436.266 763.993,437.228C768.479,438.175 772.931,439.272 777.348,440.518C781.674,441.745 785.955,443.118 790.191,444.636C794.485,446.178 798.721,447.866 802.899,449.7C807.159,451.56 811.346,453.576 815.461,455.746C819.571,457.908 823.604,460.21 827.56,462.653C831.274,464.951 834.925,467.358 838.473,469.904C842.133,472.53 845.709,475.266 849.2,478.112C852.803,481.043 856.28,484.131 859.661,487.314C863.262,490.703 866.731,494.224 870.069,497.877C873.401,501.509 876.591,505.266 879.639,509.148C883.039,513.466 886.278,517.92 889.3,522.511C892.404,527.227 895.339,532.066 898.048,537.026C901.822,543.944 905.183,551.078 908.116,558.392C911.275,566.343 913.938,574.483 916.089,582.763C910.271,538.48 892.391,496.636 864.411,461.822C843.839,436.187 818.331,414.939 789.399,399.34C759.728,383.35 727.051,373.71 693.451,371.036C690.607,370.808 687.758,370.63 684.907,370.502Z" style="fill:white;fill-rule:nonzero;"/>
    </g>
</svg>
