<svg clip-rule="evenodd" fill-rule="evenodd" stroke-linejoin="round" stroke-miterlimit="2" viewBox="0 0 96 96" xmlns="http://www.w3.org/2000/svg"><g fill="#fff" fill-rule="nonzero"><path d="m93.147 26.95h-90.2c-1.3 0-2.4 1.1-2.4 2.4v37.3c0 1.3 1.1 2.4 2.4 2.4h90.1c1.3 0 2.4-1.1 2.4-2.4v-37.2c.1-1.4-1-2.5-2.3-2.5zm-2.4 37.3h-5v-4.1c0-1.3-1.1-2.4-2.4-2.4s-2.4 1.1-2.4 2.4v4.1h-5.2v-4.1c0-1.3-1.1-2.4-2.4-2.4s-2.4 1.1-2.4 2.4v4.1h-5.2v-4.1c0-1.3-1.1-2.4-2.4-2.4s-2.4 1.1-2.4 2.4v4.1h-5.2v-4.1c0-1.3-1.1-2.4-2.4-2.4s-2.4 1.1-2.4 2.4v4.1h-5.2v-4.1c0-1.3-1.1-2.4-2.4-2.4s-2.4 1.1-2.4 2.4v4.1h-5.2v-4.1c0-1.3-1.1-2.4-2.4-2.4s-2.4 1.1-2.4 2.4v4.1h-5.2v-4.1c0-1.3-1.1-2.4-2.4-2.4s-2.4 1.1-2.4 2.4v4.1h-5.2v-4.1c0-1.3-1.1-2.4-2.4-2.4s-2.4 1.1-2.4 2.4v4.1h-5.5v-32.4h85.3z"/><path d="m12.747 52.85h17.1c1.3 0 2.4-1.1 2.4-2.4v-11.3c0-1.3-1.1-2.4-2.4-2.4h-17.1c-1.3 0-2.4 1.1-2.4 2.4v11.3c-.1 1.3 1 2.4 2.4 2.4zm2.4-11.3h12.2v6.5h-12.2z"/><path d="m39.547 52.85h17.1c1.3 0 2.4-1.1 2.4-2.4v-11.3c0-1.3-1.1-2.4-2.4-2.4h-17.1c-1.3 0-2.4 1.1-2.4 2.4v11.3c-.1 1.3 1 2.4 2.4 2.4zm2.4-11.3h12.2v6.5h-12.2z"/><path d="m66.347 52.85h17.1c1.3 0 2.4-1.1 2.4-2.4v-11.3c0-1.3-1.1-2.4-2.4-2.4h-17.1c-1.3 0-2.4 1.1-2.4 2.4v11.3c-.1 1.3 1 2.4 2.4 2.4zm2.4-11.3h12.2v6.5h-12.2z"/></g></svg>