<?xml version="1.0" encoding="UTF-8" standalone="no"?><!DOCTYPE svg PUBLIC "-//W3C//DTD SVG 1.1//EN" "http://www.w3.org/Graphics/SVG/1.1/DTD/svg11.dtd"><svg width="100%" height="100%" viewBox="0 0 96 96" version="1.1" xmlns="http://www.w3.org/2000/svg" xmlns:xlink="http://www.w3.org/1999/xlink" xml:space="preserve" xmlns:serif="http://www.serif.com/" style="fill-rule:evenodd;clip-rule:evenodd;stroke-linejoin:round;stroke-miterlimit:2;"><g><g><g><path d="M93.147,26.95l-90.2,-0c-1.3,-0 -2.4,1.1 -2.4,2.4l-0,37.3c-0,1.3 1.1,2.4 2.4,2.4l90.1,-0c1.3,-0 2.4,-1.1 2.4,-2.4l-0,-37.2c0.1,-1.4 -1,-2.5 -2.3,-2.5Zm-2.4,37.3l-5,0l-0,-4.1c-0,-1.3 -1.1,-2.4 -2.4,-2.4c-1.3,0 -2.4,1.1 -2.4,2.4l-0,4.1l-5.2,0l-0,-4.1c-0,-1.3 -1.1,-2.4 -2.4,-2.4c-1.3,0 -2.4,1.1 -2.4,2.4l-0,4.1l-5.2,0l-0,-4.1c-0,-1.3 -1.1,-2.4 -2.4,-2.4c-1.3,0 -2.4,1.1 -2.4,2.4l-0,4.1l-5.2,0l-0,-4.1c-0,-1.3 -1.1,-2.4 -2.4,-2.4c-1.3,0 -2.4,1.1 -2.4,2.4l-0,4.1l-5.2,0l-0,-4.1c-0,-1.3 -1.1,-2.4 -2.4,-2.4c-1.3,0 -2.4,1.1 -2.4,2.4l-0,4.1l-5.2,0l-0,-4.1c-0,-1.3 -1.1,-2.4 -2.4,-2.4c-1.3,0 -2.4,1.1 -2.4,2.4l-0,4.1l-5.2,0l-0,-4.1c-0,-1.3 -1.1,-2.4 -2.4,-2.4c-1.3,0 -2.4,1.1 -2.4,2.4l-0,4.1l-5.2,0l-0,-4.1c-0,-1.3 -1.1,-2.4 -2.4,-2.4c-1.3,0 -2.4,1.1 -2.4,2.4l-0,4.1l-5.5,0l-0,-32.4l85.3,-0l-0,32.4Z" style="fill:#fff;fill-rule:nonzero;"/><path d="M12.747,52.85l17.1,-0c1.3,-0 2.4,-1.1 2.4,-2.4l-0,-11.3c-0,-1.3 -1.1,-2.4 -2.4,-2.4l-17.1,-0c-1.3,-0 -2.4,1.1 -2.4,2.4l-0,11.3c-0.1,1.3 1,2.4 2.4,2.4Zm2.4,-11.3l12.2,0l-0,6.5l-12.2,0l-0,-6.5Z" style="fill:#fff;fill-rule:nonzero;"/><path d="M39.547,52.85l17.1,-0c1.3,-0 2.4,-1.1 2.4,-2.4l-0,-11.3c-0,-1.3 -1.1,-2.4 -2.4,-2.4l-17.1,-0c-1.3,-0 -2.4,1.1 -2.4,2.4l-0,11.3c-0.1,1.3 1,2.4 2.4,2.4Zm2.4,-11.3l12.2,0l-0,6.5l-12.2,0l-0,-6.5Z" style="fill:#fff;fill-rule:nonzero;"/><path d="M66.347,52.85l17.1,-0c1.3,-0 2.4,-1.1 2.4,-2.4l-0,-11.3c-0,-1.3 -1.1,-2.4 -2.4,-2.4l-17.1,-0c-1.3,-0 -2.4,1.1 -2.4,2.4l-0,11.3c-0.1,1.3 1,2.4 2.4,2.4Zm2.4,-11.3l12.2,0l-0,6.5l-12.2,0l-0,-6.5Z" style="fill:#fff;fill-rule:nonzero;"/></g></g></g></svg>