<svg clip-rule="evenodd" fill-rule="evenodd" stroke-linejoin="round" stroke-miterlimit="2" viewBox="0 0 96 96" xmlns="http://www.w3.org/2000/svg"><g fill="#fff" fill-rule="nonzero"><path d="m66.263 69.151c-1.906.802-4.1-.092-4.903-1.997-.801-1.907.094-4.1 1.999-4.901.897-.382 1.784-.87 2.649-1.452.834-.561 1.616-1.21 2.343-1.934.724-.726 1.376-1.512 1.934-2.343.583-.864 1.071-1.752 1.451-2.651.406-.96.719-1.959.926-2.992.196-.967.298-2.015.298-3.142s-.104-2.178-.298-3.144c-.207-1.032-.52-2.032-.926-2.991-.38-.898-.868-1.787-1.451-2.649-.561-.833-1.21-1.617-1.934-2.343-1.443-1.443-3.137-2.6-4.992-3.387-1.905-.802-2.8-2.997-1.999-4.901.803-1.906 2.999-2.799 4.903-1.997 2.807 1.188 5.315 2.887 7.401 4.972 1.047 1.046 2.001 2.204 2.845 3.456.81 1.202 1.525 2.521 2.126 3.943.594 1.405 1.057 2.887 1.368 4.43.31 1.539.474 3.083.474 4.612s-.162 3.073-.474 4.612c-.311 1.545-.774 3.024-1.368 4.429-.601 1.422-1.316 2.741-2.126 3.944-.844 1.253-1.798 2.413-2.845 3.457-1.047 1.047-2.206 2.002-3.457 2.847-1.202.805-2.523 1.519-3.944 2.122z"/><path d="m73.072 81.818c-1.907.802-4.1-.091-4.903-1.996-.802-1.906.092-4.1 1.998-4.903 1.717-.726 3.382-1.637 4.974-2.71 1.568-1.057 3.04-2.274 4.39-3.624s2.565-2.821 3.623-4.388c1.073-1.592 1.983-3.257 2.71-4.974.758-1.792 1.343-3.669 1.736-5.608.374-1.85.569-3.815.569-5.88 0-2.064-.197-4.03-.569-5.881-.391-1.936-.976-3.814-1.736-5.605-.727-1.717-1.637-3.383-2.71-4.975-1.058-1.567-2.273-3.038-3.623-4.388s-2.822-2.565-4.39-3.623c-1.592-1.073-3.257-1.983-4.974-2.71-1.906-.803-2.8-3-1.998-4.902.803-1.906 3-2.8 4.903-1.997 2.239.948 4.337 2.084 6.267 3.386 1.99 1.341 3.831 2.86 5.503 4.532s3.191 3.515 4.533 5.504c1.301 1.931 2.438 4.027 3.386 6.267.947 2.236 1.679 4.595 2.174 7.044.49 2.427.746 4.883.746 7.35 0 2.464-.256 4.924-.746 7.347-.495 2.45-1.227 4.808-2.174 7.044-.948 2.238-2.085 4.336-3.386 6.266-1.34 1.99-2.861 3.833-4.533 5.505-1.672 1.67-3.515 3.19-5.505 4.532-1.929 1.302-4.026 2.438-6.265 3.387z"/><path d="m43.796 12.458c-7.48 5.632-14.963 11.266-22.444 16.896h-14.568c-3.554 0-6.465 2.91-6.465 6.464v24.364c0 3.556 2.911 6.464 6.465 6.464h14.567c7.481 5.632 14.965 11.265 22.444 16.897 3.411 2.565 7.362 2.154 7.362-2.299v-66.486c.001-4.454-3.949-4.867-7.361-2.3z"/></g></svg>