<svg clip-rule="evenodd" fill-rule="evenodd" stroke-linejoin="round" stroke-miterlimit="2" viewBox="0 0 96 96" xmlns="http://www.w3.org/2000/svg"><g fill="#fff" fill-rule="nonzero"><path d="m48.05 22.8c-13.9 0-25.2 11.3-25.2 25.2s11.3 25.2 25.2 25.2 25.2-11.3 25.2-25.2-11.3-25.2-25.2-25.2zm0 43.9c-10.3 0-18.7-8.4-18.7-18.7s8.4-18.7 18.7-18.7 18.7 8.4 18.7 18.7-8.4 18.7-18.7 18.7z"/><path d="m48.05 17.6c1.8 0 3.3-1.5 3.3-3.3v-10.6c0-1.8-1.5-3.3-3.3-3.3s-3.3 1.5-3.3 3.3v10.6c0 1.9 1.5 3.3 3.3 3.3z"/><path d="m21.95 26.5c.6.6 1.5 1 2.3 1s1.7-.3 2.3-1c1.3-1.3 1.3-3.3 0-4.6l-7.5-7.5c-1.3-1.3-3.3-1.3-4.6 0s-1.3 3.3 0 4.6z"/><path d="m17.65 48c0-1.8-1.5-3.3-3.3-3.3h-10.6c-1.8 0-3.3 1.5-3.3 3.3s1.5 3.3 3.3 3.3h10.6c1.9 0 3.3-1.5 3.3-3.3z"/><path d="m21.95 69.5-7.5 7.5c-1.3 1.3-1.3 3.3 0 4.6.6.6 1.5 1 2.3 1s1.7-.3 2.3-1l7.5-7.5c1.3-1.3 1.3-3.3 0-4.6-1.2-1.3-3.3-1.3-4.6 0z"/><path d="m48.05 78.4c-1.8 0-3.3 1.5-3.3 3.3v10.6c0 1.8 1.5 3.3 3.3 3.3s3.3-1.5 3.3-3.3v-10.6c0-1.9-1.5-3.3-3.3-3.3z"/><path d="m74.15 69.5c-1.3-1.3-3.3-1.3-4.6 0s-1.3 3.3 0 4.6l7.5 7.5c.6.6 1.5 1 2.3 1s1.7-.3 2.3-1c1.3-1.3 1.3-3.3 0-4.6z"/><path d="m92.25 44.7h-10.6c-1.8 0-3.3 1.5-3.3 3.3s1.5 3.3 3.3 3.3h10.6c1.8 0 3.3-1.5 3.3-3.3s-1.5-3.3-3.3-3.3z"/><path d="m71.85 27.5c.8 0 1.7-.3 2.3-1l7.5-7.5c1.3-1.3 1.3-3.3 0-4.6s-3.3-1.3-4.6 0l-7.5 7.5c-1.3 1.3-1.3 3.3 0 4.6.6.7 1.4 1 2.3 1z"/></g></svg>