<svg clip-rule="evenodd" fill-rule="evenodd" stroke-linejoin="round" stroke-miterlimit="2" viewBox="0 0 96 96" xmlns="http://www.w3.org/2000/svg"><g fill="#fff" fill-rule="nonzero"><path d="m48 23.599c-13.493 0-24.401 10.908-24.401 24.401s10.908 24.401 24.401 24.401 24.401-10.908 24.401-24.401-10.908-24.401-24.401-24.401zm0 45.428c-11.582 0-21.027-9.445-21.027-21.027s9.445-21.027 21.027-21.027 21.027 9.445 21.027 21.027-9.445 21.027-21.027 21.027z"/><path d="m48 18.202c.787 0 1.462-.675 1.462-1.462v-15.067c0-.788-.675-1.462-1.462-1.462s-1.462.674-1.462 1.462v15.067c0 .787.675 1.462 1.462 1.462z"/><path d="m24.836 26.973c.563.562 1.462.562 2.024 0 .563-.562.563-1.462 0-2.024l-10.682-10.683c-.562-.562-1.462-.562-2.024 0-.562.563-.562 1.462 0 2.024z"/><path d="m18.202 48c0-.787-.675-1.462-1.462-1.462h-15.067c-.788 0-1.462.675-1.462 1.462s.674 1.462 1.462 1.462h15.067c.787 0 1.462-.675 1.462-1.462z"/><path d="m24.836 69.027-10.682 10.683c-.562.562-.562 1.461 0 2.024.562.562 1.462.562 2.024 0l10.682-10.683c.563-.562.563-1.462 0-2.024-.449-.562-1.461-.562-2.024 0z"/><path d="m48 77.798c-.787 0-1.462.675-1.462 1.462v15.067c0 .788.675 1.462 1.462 1.462s1.462-.674 1.462-1.462v-15.067c0-.787-.675-1.462-1.462-1.462z"/><path d="m71.164 69.027c-.563-.562-1.462-.562-2.024 0-.563.562-.563 1.462 0 2.024l10.682 10.683c.562.562 1.462.562 2.024 0 .562-.563.562-1.462 0-2.024z"/><path d="m94.327 46.538h-15.067c-.787 0-1.462.675-1.462 1.462s.675 1.462 1.462 1.462h15.067c.788 0 1.462-.675 1.462-1.462s-.674-1.462-1.462-1.462z"/><path d="m71.164 26.973 10.682-10.683c.562-.562.562-1.461 0-2.024-.562-.562-1.462-.562-2.024 0l-10.682 10.683c-.563.562-.563 1.462 0 2.024.449.562 1.461.562 2.024 0z"/></g></svg>