<svg clip-rule="evenodd" fill-rule="evenodd" stroke-linejoin="round" stroke-miterlimit="2" viewBox="0 0 96 95" xmlns="http://www.w3.org/2000/svg"><g fill="#fff" fill-rule="nonzero"><path d="m46.9 8.758-26.3 21.5-14.7 1.4c-3.1.3-5.4 2.9-5.4 5.9v19.9c0 3.1 2.3 5.6 5.4 5.9l14.7 1.4 26.3 21.5c2.1 1.8 5.4.2 5.4-2.5v-72.4c-.1-2.9-3.3-4.4-5.4-2.6z"/><path d="m95.5 44.158c0-.7-.6-1.3-1.3-1.3h-11.3v-11.3c0-.7-.6-1.3-1.3-1.3h-6.6c-.7 0-1.3.6-1.3 1.3v11.3h-11.3c-.7 0-1.3.6-1.3 1.3v6.6c0 .7.6 1.3 1.3 1.3h11.3v11.3c0 .7.6 1.3 1.3 1.3h6.6c.7 0 1.3-.6 1.3-1.3v-11.3h11.3c.7 0 1.3-.6 1.3-1.3z"/></g></svg>