<svg clip-rule="evenodd" fill-rule="evenodd" stroke-linejoin="round" stroke-miterlimit="2" viewBox="0 0 96 96" xmlns="http://www.w3.org/2000/svg"><g fill="#fff" fill-rule="nonzero"><path d="m75.3 69.7c7.8-7.3 12.7-17.7 12.7-29.2 0-22.1-18-40-40-40-22.1 0-40 18-40 40 0 11.5 4.9 21.9 12.7 29.2l-8.2 12.5c-1.7 2.6-1.9 6-.4 8.8 1.5 2.7 4.4 4.5 7.5 4.5h56.7c3.1 0 6-1.7 7.5-4.5s1.4-6.1-.4-8.8zm-61.4-29.2c0-18.8 15.3-34.1 34.1-34.1s34.1 15.3 34.1 34.1-15.3 34.1-34.1 34.1c-18.8.1-34.1-15.2-34.1-34.1zm64.8 47.7c-.2.4-.9 1.4-2.3 1.4h-56.7c-1.4 0-2.1-.9-2.3-1.4-.2-.4-.7-1.5.1-2.7l7.8-12c6.5 4.5 14.3 7.1 22.7 7.1s16.3-2.6 22.7-7.1l7.8 12c.8 1.2.4 2.3.2 2.7z"/><path d="m48 61.9c11.8 0 21.4-9.6 21.4-21.4s-9.6-21.3-21.4-21.3-21.4 9.6-21.4 21.4 9.6 21.3 21.4 21.3zm0-36.8c8.5 0 15.5 6.9 15.5 15.5 0 8.5-7 15.4-15.5 15.4s-15.5-6.9-15.5-15.5c0-8.5 7-15.4 15.5-15.4z"/><path d="m41.2 43.5c1.6 0 3-1.3 3-3 0-2.1 1.7-3.9 3.9-3.9 1.6 0 3-1.3 3-3s-1.3-3-3-3c-5.4 0-9.8 4.4-9.8 9.8-.1 1.8 1.2 3.1 2.9 3.1z"/></g></svg>