<?xml version="1.0" encoding="UTF-8" standalone="no"?><!DOCTYPE svg PUBLIC "-//W3C//DTD SVG 1.1//EN" "http://www.w3.org/Graphics/SVG/1.1/DTD/svg11.dtd"><svg width="100%" height="100%" viewBox="0 0 96 96" version="1.1" xmlns="http://www.w3.org/2000/svg" xmlns:xlink="http://www.w3.org/1999/xlink" xml:space="preserve" xmlns:serif="http://www.serif.com/" style="fill-rule:evenodd;clip-rule:evenodd;stroke-linejoin:round;stroke-miterlimit:2;"><g><g><g><path d="M90.2,1.45l-61.6,0c-3,0 -5.3,2.4 -5.3,5.4l0,21.5l6.7,0l0,-11.3l58.8,0l-0,38c-0,0.2 -0.2,0.4 -0.4,0.4l-10,0l-0,6.7l11.8,0c3,0 5.3,-2.4 5.3,-5.3l-0,-50c0,-3 -2.4,-5.4 -5.3,-5.4Zm-58,10.1c-1.3,0 -2.3,-1 -2.3,-2.3c0,-1.3 1,-2.3 2.3,-2.3c1.3,0 2.3,1 2.3,2.3c0,1.3 -1.1,2.3 -2.3,2.3Zm6.9,0c-1.3,0 -2.3,-1 -2.3,-2.3c0,-1.3 1,-2.3 2.3,-2.3c1.2,0 2.3,1 2.3,2.3c0,1.3 -1,2.3 -2.3,2.3Zm7,0c-1.2,0 -2.3,-1 -2.3,-2.3c0,-1.3 1,-2.3 2.3,-2.3c1.3,0 2.3,1 2.3,2.3c0,1.3 -1,2.3 -2.3,2.3Z" style="fill:#fff;fill-rule:nonzero;"/><path d="M67.4,33.95l-61.6,0c-2.9,0 -5.3,2.4 -5.3,5.3l-0,50c-0,2.9 2.4,5.3 5.3,5.3l61.5,0c2.9,0 5.3,-2.4 5.3,-5.3l-0,-50c0.1,-2.9 -2.3,-5.3 -5.2,-5.3Zm-44.1,5.5c1.3,0 2.3,1 2.3,2.3c-0,1.3 -1,2.3 -2.3,2.3c-1.3,0 -2.3,-1 -2.3,-2.3c-0,-1.3 1,-2.3 2.3,-2.3Zm-7,0c1.3,0 2.3,1 2.3,2.3c-0,1.3 -1,2.3 -2.3,2.3c-1.3,0 -2.3,-1 -2.3,-2.3c-0,-1.3 1.1,-2.3 2.3,-2.3Zm-6.9,0c1.3,0 2.3,1 2.3,2.3c-0,1.3 -1,2.3 -2.3,2.3c-1.3,0 -2.3,-1 -2.3,-2.3c-0,-1.3 1,-2.3 2.3,-2.3Zm56.6,48.1c0,0.2 -0.2,0.4 -0.4,0.4l-58,0c-0.2,0 -0.4,-0.2 -0.4,-0.4l0,-38l58.8,0l0,38Z" style="fill:#fff;fill-rule:nonzero;"/></g></g></g></svg>