<svg clip-rule="evenodd" fill-rule="evenodd" stroke-linejoin="round" stroke-miterlimit="2" viewBox="0 0 96 96" xmlns="http://www.w3.org/2000/svg"><g fill="#fff" fill-rule="nonzero"><path d="m90.2 1.45h-61.6c-3 0-5.3 2.4-5.3 5.4v21.5h6.7v-11.3h58.8v38c0 .2-.2.4-.4.4h-10v6.7h11.8c3 0 5.3-2.4 5.3-5.3v-50c0-3-2.4-5.4-5.3-5.4zm-58 10.1c-1.3 0-2.3-1-2.3-2.3s1-2.3 2.3-2.3 2.3 1 2.3 2.3-1.1 2.3-2.3 2.3zm6.9 0c-1.3 0-2.3-1-2.3-2.3s1-2.3 2.3-2.3c1.2 0 2.3 1 2.3 2.3s-1 2.3-2.3 2.3zm7 0c-1.2 0-2.3-1-2.3-2.3s1-2.3 2.3-2.3 2.3 1 2.3 2.3-1 2.3-2.3 2.3z"/><path d="m67.4 33.95h-61.6c-2.9 0-5.3 2.4-5.3 5.3v50c0 2.9 2.4 5.3 5.3 5.3h61.5c2.9 0 5.3-2.4 5.3-5.3v-50c.1-2.9-2.3-5.3-5.2-5.3zm-44.1 5.5c1.3 0 2.3 1 2.3 2.3s-1 2.3-2.3 2.3-2.3-1-2.3-2.3 1-2.3 2.3-2.3zm-7 0c1.3 0 2.3 1 2.3 2.3s-1 2.3-2.3 2.3-2.3-1-2.3-2.3 1.1-2.3 2.3-2.3zm-6.9 0c1.3 0 2.3 1 2.3 2.3s-1 2.3-2.3 2.3-2.3-1-2.3-2.3 1-2.3 2.3-2.3zm56.6 48.1c0 .2-.2.4-.4.4h-58c-.2 0-.4-.2-.4-.4v-38h58.8z"/></g></svg>